<?xml version="1.0" encoding="UTF-8" standalone="no"?>
<svg
   xmlns:dc="http://purl.org/dc/elements/1.1/"
   xmlns:cc="http://creativecommons.org/ns#"
   xmlns:rdf="http://www.w3.org/1999/02/22-rdf-syntax-ns#"
   xmlns:svg="http://www.w3.org/2000/svg"
   xmlns="http://www.w3.org/2000/svg"
   xmlns:sodipodi="http://sodipodi.sourceforge.net/DTD/sodipodi-0.dtd"
   xmlns:inkscape="http://www.inkscape.org/namespaces/inkscape"
   id="Layer_1"
   viewBox="0 0 452 216"
   version="1.1"
   sodipodi:docname="connect_devices.svg"
   inkscape:version="1.0.1 (c497b03c, 2020-09-10)">
  <metadata
     id="metadata1119">
    <rdf:RDF>
      <cc:Work
         rdf:about="">
        <dc:format>image/svg+xml</dc:format>
        <dc:type
           rdf:resource="http://purl.org/dc/dcmitype/StillImage" />
        <dc:title></dc:title>
      </cc:Work>
    </rdf:RDF>
  </metadata>
  <defs
     id="defs1117" />
  <sodipodi:namedview
     pagecolor="#ffffff"
     bordercolor="#666666"
     borderopacity="1"
     objecttolerance="10"
     gridtolerance="10"
     guidetolerance="10"
     inkscape:pageopacity="0"
     inkscape:pageshadow="2"
     inkscape:window-width="1240"
     inkscape:window-height="710"
     id="namedview1115"
     showgrid="false"
     inkscape:zoom="1.5486726"
     inkscape:cx="226"
     inkscape:cy="108"
     inkscape:window-x="20"
     inkscape:window-y="108"
     inkscape:window-maximized="0"
     inkscape:current-layer="Layer_3" />
  <style
     id="style1075">.st0{fill:#282828;} .st1{fill:#FFFFFF;} .st2{fill:none;stroke:#FFFFFF;stroke-width:4;stroke-miterlimit:10;} .st3{fill:#222326;}</style>
  <g
     id="Layer_3">
    <path
       class="st0"
       d="M0 0h452v216H0z"
       id="path1077"
       style="fill:#1d1f28;fill-opacity:1" />
    <path
       class="st1"
       d="M339.7 16.4v157.9H88.5V16.4h251.2m1-4H87.5c-1.7 0-3 1.4-3 3v159.9c0 1.6 1.3 3 3 3h253.3c1.6 0 3-1.4 3-3V15.4c-.1-1.7-1.4-3-3.1-3zm-90.6 188.5c0 .6-.4 1-1 1h-70c-.6 0-1-.4-1-1v-2c0-.6.4-1 1-1h70c.6 0 1 .4 1 1v2z"
       id="path1079" />
    <path
       class="st0"
       d="M13.7 190.4c-3.3 0-6-2.7-6-6V103c0-3.3 2.7-6 6-6h126c3.3 0 6 2.7 6 6v81.4c0 3.3-2.7 6-6 6h-126z"
       id="path1081"
       style="fill:#1d1f28;fill-opacity:1" />
    <path
       class="st0"
       d="M139.7 100c1.6 0 3 1.3 3 3v81.4c0 1.6-1.4 3-3 3h-126c-1.6 0-3-1.4-3-3V103c0-1.7 1.4-3 3-3h126m0-6h-126c-5 0-9 4-9 9v81.4c0 5 4 9 9 9h126c5 0 9-4 9-9V103c0-4.9-4.1-9-9-9z"
       id="path1083"
       style="fill:#1d1f28;fill-opacity:1" />
    <path
       class="st1"
       d="M138.7 104v79.4h-124V104h124m1-4h-126c-1.6 0-3 1.3-3 3v81.4c0 1.6 1.4 3 3 3h126c1.6 0 3-1.4 3-3V103c0-1.6-1.4-3-3-3zm13.6 100.9c0 .6-.4 1-1 1H1c-.6 0-1-.4-1-1v-2c0-.6.4-1 1-1h151.3c.6 0 1 .4 1 1v2z"
       id="path1085" />
    <path
       class="st0"
       d="M332.8 206.9c-3.3 0-6-2.7-6-6v-110c0-3.3 2.7-6 6-6H409c3.3 0 6 2.7 6 6v110c0 3.3-2.7 6-6 6h-76.2z"
       id="path1087"
       style="fill:#1d1f28;fill-opacity:1" />
    <path
       class="st0"
       d="m 409,87.9 c 1.6,0 3,1.3 3,3 v 110 c 0,1.6 -1.4,3 -3,3 h -76.2 c -1.6,0 -3,-1.4 -3,-3 v -110 c 0,-1.7 1.4,-3 3,-3 H 409 m 0,-6 h -76.2 c -5,0 -9,4 -9,9 v 110 c 0,5 4,9 9,9 H 409 c 5,0 9,-4 9,-9 V 114.93714 90.9 c 0,-5 -4.1,-9 -9,-9 z"
       id="path1089"
       sodipodi:nodetypes="cssssssscssssssscss"
       style="fill:#1d1f28;fill-opacity:1" />
    <path
       class="st1"
       d="M408 91.9v108h-74.2v-108H408m1-4h-76.2c-1.6 0-3 1.3-3 3v110c0 1.6 1.4 3 3 3H409c1.6 0 3-1.4 3-3v-110c0-1.7-1.4-3-3-3z"
       id="path1091" />
    <path
       class="st1"
       d="M370.9 144.3c10.2 0 18.5 8.3 18.5 18.5s-8.3 18.5-18.5 18.5-18.5-8.3-18.5-18.5 8.3-18.5 18.5-18.5m0-4c-12.4 0-22.5 10.1-22.5 22.5s10.1 22.5 22.5 22.5 22.5-10.1 22.5-22.5c0-12.5-10.1-22.5-22.5-22.5z"
       id="path1093" />
    <circle
       class="st1"
       cx="370.9"
       cy="114.4"
       r="4"
       id="circle1095" />
    <path
       class="st0"
       d="M332.3 206.6c-3.7 0-7.2-1.6-9.6-4.4l-7-8.2H300l-7 8.2c-2.4 2.8-5.9 4.4-9.6 4.4-.9 0-1.8-.1-2.6-.3-3-.6-5.7-2.4-7.4-5.1-1.7-2.6-2.3-5.7-1.6-8.8l6.3-29.5c1.2-5.8 6.4-10 12.4-10h34.9c5.9 0 11.1 4.2 12.4 10l6.3 29.5c.6 3 .1 6.2-1.6 8.8-1.7 2.6-4.3 4.4-7.4 5.1-1.1.3-1.9.3-2.8.3z"
       id="path1097"
       style="fill:#1d1f28;fill-opacity:1" />
    <path
       class="st0"
       d="M325.3 156.1c4.5 0 8.5 3.2 9.4 7.6l6.3 29.5c1 4.7-2 9.3-6.7 10.3-.7.1-1.3.2-2 .2-2.8 0-5.5-1.2-7.3-3.4l-8-9.3h-18.4l-7.9 9.3c-1.9 2.2-4.5 3.4-7.3 3.4-.7 0-1.3-.1-2-.2-4.7-1-7.7-5.6-6.7-10.3l6.3-29.5c.9-4.4 4.9-7.6 9.4-7.6h34.9m0-6h-34.9c-7.3 0-13.8 5.2-15.3 12.4l-6.3 29.5c-1.7 7.9 3.4 15.7 11.3 17.4 1.1.2 2.2.3 3.3.3 4.6 0 8.9-2 11.9-5.5l6.1-7.2h12.8l6.1 7.2c3 3.5 7.3 5.5 11.9 5.5 1.1 0 2.2-.1 3.3-.3 7.9-1.7 13-9.5 11.3-17.4l-6.3-29.5c-1.5-7.2-7.9-12.4-15.2-12.4z"
       id="path1099"
       style="fill:#1d1f28;fill-opacity:1" />
    <path
       class="st1"
       d="M325.3 160.1c2.6 0 5 1.9 5.5 4.5L337 194c.5 2.5-1.1 5-3.6 5.5-.4.1-.8.1-1.2.1-1.6 0-3.2-.7-4.3-2l-7.9-9.3-1.2-1.4h-22l-1.2 1.4-7.9 9.3c-1.1 1.3-2.6 2-4.3 2-.4 0-.8 0-1.2-.1-2.5-.5-4.1-3-3.6-5.5l6.3-29.5c.5-2.6 2.9-4.5 5.5-4.5l34.9.1m0-4h-34.9c-4.5 0-8.5 3.2-9.4 7.6l-6.3 29.5c-1 4.7 2 9.3 6.7 10.3.7.1 1.3.2 2 .2 2.8 0 5.5-1.2 7.3-3.4l7.9-9.3H317l7.9 9.3c1.9 2.2 4.5 3.4 7.3 3.4.7 0 1.3-.1 2-.2 4.7-1 7.7-5.6 6.7-10.3l-6.3-29.5c-.9-4.5-4.8-7.6-9.3-7.6z"
       id="path1101" />
    <path
       class="st2"
       d="M295.8 166.9v12m6-6h-12"
       id="path1103" />
    <circle
       class="st1"
       cx="321.1"
       cy="172.9"
       r="4"
       id="circle1105" />
    <path
       class="st3"
       d="M421 201.9c-.5 0-1-.5-1-1v-42c0-.5.5-1 1-1h28c.5 0 1 .5 1 1v42c0 .5-.5 1-1 1h-28z"
       id="path1107"
       style="fill:#1d1f28;fill-opacity:1" />
    <path
       class="st1"
       d="M448 159.9v40h-26v-40h26m1-4h-28c-1.6 0-3 1.4-3 3v42c0 1.6 1.4 3 3 3h28c1.6 0 3-1.4 3-3v-42c0-1.7-1.4-3-3-3z"
       id="path1109" />
    <circle
       class="st1"
       cx="435"
       cy="193.8"
       r="2"
       id="circle1111" />
  </g>
</svg>
